<?xml version="1.0" encoding="UTF-8"?>
<svg version="1.1" viewBox="0 0 199 33" xmlns="http://www.w3.org/2000/svg">
<title>logo@2x</title>
<g fill="none" fill-rule="evenodd">
<g transform="translate(-349 -36)">
<g transform="translate(350 29)">
<g transform="translate(0 8)">
<path d="m33.139 24c1.2031 0 2.3418-0.015625 3.416-0.046875s1.8145-0.078125 2.2207-0.14062c0.5-0.085938 0.98828-0.24219 1.4648-0.46875s0.86328-0.5 1.1602-0.82031c0.35156-0.375 0.625-0.82422 0.82031-1.3477 0.19531-0.52344 0.29297-1.082 0.29297-1.6758 0-0.42969-0.056641-0.83789-0.16992-1.2246-0.11328-0.38672-0.2832-0.73633-0.50977-1.0488s-0.48242-0.56836-0.76758-0.76758c-0.28516-0.19922-0.55273-0.34375-0.80273-0.43359-0.25-0.089844-0.58203-0.16992-0.99609-0.24023 0.41406-0.11719 0.74414-0.23438 0.99023-0.35156 0.24609-0.11719 0.49805-0.28125 0.75586-0.49219 0.25781-0.21094 0.49023-0.47461 0.69727-0.79102 0.20703-0.31641 0.36719-0.67773 0.48047-1.084 0.11328-0.40625 0.16992-0.83203 0.16992-1.2773 0-0.57031-0.097656-1.1055-0.29297-1.6055-0.17188-0.4375-0.41016-0.8125-0.71484-1.125-0.27344-0.26562-0.61523-0.48828-1.0254-0.66797s-0.88867-0.30469-1.4355-0.375c-0.41406-0.054688-1.1094-0.082031-2.0859-0.082031-0.8125 0-1.7852 0.017578-2.918 0.052734-1.1328 0.035156-2.125 0.052734-2.9766 0.052734-0.60938 0-1.4336-0.011719-2.4727-0.035156 0.0078125 0.625 0.011719 1.1094 0.011719 1.4531 0 0.96094-0.037109 2.6133-0.11133 4.957-0.074219 2.3438-0.15039 4.1875-0.22852 5.5312-0.054688 0.98438-0.16406 2.3359-0.32812 4.0547l2.2734-0.011719 3.082 0.011719zm1.5352-9.7617h-1.6641l0.14062-3.1406h2.1094c0.625 0 1.0898 0.054688 1.3945 0.16406s0.52539 0.27734 0.66211 0.50391c0.13672 0.22656 0.20508 0.48438 0.20508 0.77344 0 0.20312-0.033203 0.40625-0.099609 0.60938s-0.17969 0.38672-0.33984 0.55078c-0.16016 0.16406-0.34961 0.28125-0.56836 0.35156-0.21875 0.070313-0.44336 0.11914-0.67383 0.14648-0.23047 0.027344-0.61914 0.041016-1.166 0.041016zm0.31641 6.5508h-2.25l0.14062-3.375h2.4727c0.53125 0 0.92188 0.029297 1.1719 0.087891 0.25 0.058594 0.46094 0.1543 0.63281 0.28711s0.30078 0.29688 0.38672 0.49219 0.12891 0.42188 0.12891 0.67969c0 0.29688-0.052734 0.56641-0.1582 0.80859-0.10547 0.24219-0.24805 0.43359-0.42773 0.57422s-0.44141 0.25391-0.78516 0.33984c-0.28125 0.070312-0.71875 0.10547-1.3125 0.10547zm16.301 3.5156c1.0781 0 2.0996-0.16406 3.0645-0.49219 0.96484-0.32812 1.7598-0.82227 2.3848-1.4824 0.625-0.66016 1.0684-1.3672 1.3301-2.1211 0.26172-0.75391 0.39258-1.5488 0.39258-2.3848 0-0.85938-0.14648-1.6621-0.43945-2.4082-0.29297-0.74609-0.74805-1.3984-1.3652-1.957-0.61719-0.55859-1.373-0.98633-2.2676-1.2832s-1.8262-0.44531-2.7949-0.44531c-1.0391 0-2.0391 0.16602-3 0.49805-0.96094 0.33203-1.7676 0.80664-2.4199 1.4238-0.65234 0.61719-1.1289 1.3125-1.4297 2.0859-0.30078 0.77344-0.45117 1.5859-0.45117 2.4375 0 0.85156 0.1543 1.6641 0.46289 2.4375 0.30859 0.77344 0.76953 1.4375 1.3828 1.9922 0.61328 0.55469 1.377 0.97656 2.291 1.2656 0.91406 0.28906 1.8672 0.43359 2.8594 0.43359zm-0.035156-3.3281c-0.64844 0-1.1875-0.22852-1.6172-0.68555-0.42969-0.45703-0.64453-1.1152-0.64453-1.9746 0-0.58594 0.099609-1.127 0.29883-1.623 0.19922-0.49609 0.49414-0.87305 0.88477-1.1309s0.83594-0.38672 1.3359-0.38672c0.47656 0 0.89258 0.11719 1.248 0.35156 0.35547 0.23438 0.61133 0.54688 0.76758 0.9375s0.23438 0.82812 0.23438 1.3125c0 0.58594-0.099609 1.1348-0.29883 1.6465-0.19922 0.51172-0.49414 0.89844-0.88477 1.1602-0.39062 0.26172-0.83203 0.39258-1.3242 0.39258zm17.133 3.3281c1.1328 0 2.125-0.26367 2.9766-0.79102 0.85156-0.52734 1.5312-1.3359 2.0391-2.4258 0.50781-1.0898 0.76172-2.2832 0.76172-3.5801s-0.26758-2.3945-0.80273-3.293c-0.53516-0.89844-1.2305-1.5371-2.0859-1.916-0.85547-0.37891-1.8848-0.56836-3.0879-0.56836-0.375 0-0.75391 0.019531-1.1367 0.058594s-0.92969 0.11719-1.6406 0.23438c0.078125-1.4609 0.20312-2.8008 0.375-4.0195-0.74219 0.015625-1.5 0.023438-2.2734 0.023438-0.78906 0-1.6367-0.0078125-2.543-0.023438 0 1.6562-0.082031 4.1211-0.24609 7.3945s-0.35547 6.1406-0.57422 8.6016c1.0938-0.015625 1.8711-0.023438 2.332-0.023438 0.5625 0 1.2617 0.0078125 2.0977 0.023438l0.046875-1.5c0.27344 0.32031 0.51562 0.57422 0.72656 0.76172s0.47266 0.36523 0.78516 0.5332c0.3125 0.16797 0.66016 0.29492 1.043 0.38086 0.38281 0.085938 0.78516 0.12891 1.207 0.12891zm-1.2422-3.4453c-0.45312 0-0.86133-0.12891-1.2246-0.38672-0.36328-0.25781-0.60938-0.60156-0.73828-1.0312-0.12891-0.42969-0.19336-1.0117-0.19336-1.7461 0-0.28906 0.03125-1.082 0.09375-2.3789 0.6875-0.17188 1.2891-0.25781 1.8047-0.25781 0.82812 0 1.4629 0.24805 1.9043 0.74414 0.44141 0.49609 0.66211 1.1543 0.66211 1.9746 0 0.54688-0.091797 1.0684-0.27539 1.5645-0.18359 0.49609-0.45117 0.87305-0.80273 1.1309-0.35156 0.25781-0.76172 0.38672-1.2305 0.38672zm12.609 3.4453c0.60156 0 1.2383-0.054688 1.9102-0.16406 0.3125-1.1562 0.58203-2.0352 0.80859-2.6367-0.32812 0.10938-0.58594 0.17773-0.77344 0.20508-0.1875 0.027344-0.36328 0.041016-0.52734 0.041016-0.46094 0-0.79688-0.09375-1.0078-0.28125s-0.31641-0.41406-0.31641-0.67969c0-0.17188 0.037109-0.32812 0.11133-0.46875s0.19922-0.27734 0.375-0.41016c0.17578-0.13281 0.38281-0.24219 0.62109-0.32812 0.23828-0.085937 0.56836-0.19141 0.99023-0.31641s0.7168-0.21875 0.88477-0.28125c0.16797-0.0625 0.40039-0.16406 0.69727-0.30469-0.13281 2.6875-0.25391 4.4609-0.36328 5.3203 0.82812-0.015625 1.6094-0.023438 2.3438-0.023438 0.75781 0 1.5195 0.0078125 2.2852 0.023438 0.0625-2.4844 0.15234-4.4922 0.26953-6.0234s0.17578-2.5156 0.17578-2.9531c0-0.85938-0.21484-1.5195-0.64453-1.9805-0.42969-0.46094-1.0273-0.79492-1.793-1.002-0.76562-0.20703-1.6094-0.31055-2.5312-0.31055-1.6172 0-3.5508 0.24609-5.8008 0.73828-0.085938 0.625-0.14844 1.084-0.1875 1.377-0.039062 0.29297-0.13281 0.82617-0.28125 1.5996 1.9766-0.75781 3.6367-1.1367 4.9805-1.1367 0.48438 0 0.85156 0.080078 1.1016 0.24023 0.25 0.16016 0.375 0.38867 0.375 0.68555 0 0.10938-0.019531 0.21289-0.058594 0.31055-0.039062 0.097656-0.10352 0.19141-0.19336 0.28125-0.089844 0.089844-0.20703 0.16797-0.35156 0.23438-0.14453 0.066406-0.38672 0.14453-0.72656 0.23438-0.33984 0.089844-0.71289 0.17383-1.1191 0.25195-0.97656 0.1875-1.7832 0.38672-2.4199 0.59766-0.63672 0.21094-1.1387 0.43555-1.5059 0.67383-0.36719 0.23828-0.6875 0.52539-0.96094 0.86133s-0.47461 0.67969-0.60352 1.0312c-0.12891 0.35156-0.19336 0.71094-0.19336 1.0781 0 0.60156 0.17383 1.2031 0.52148 1.8047 0.34766 0.60156 0.84375 1.0371 1.4883 1.3066 0.64453 0.26953 1.4512 0.4043 2.4199 0.4043zm22.219-0.30469c1.2031 0 2.3418-0.015625 3.416-0.046875s1.8145-0.078125 2.2207-0.14062c0.5-0.085938 0.98828-0.24219 1.4648-0.46875 0.47656-0.22656 0.86328-0.5 1.1602-0.82031 0.35156-0.375 0.625-0.82422 0.82031-1.3477 0.19531-0.52344 0.29297-1.082 0.29297-1.6758 0-0.42969-0.05664-0.83789-0.16992-1.2246-0.11328-0.38672-0.2832-0.73633-0.50977-1.0488-0.22656-0.3125-0.48242-0.56836-0.76758-0.76758-0.28516-0.19922-0.55274-0.34375-0.80274-0.43359-0.25-0.089844-0.58203-0.16992-0.99609-0.24023 0.41406-0.11719 0.74414-0.23438 0.99023-0.35156 0.24609-0.11719 0.49805-0.28125 0.75586-0.49219 0.25781-0.21094 0.49024-0.47461 0.69727-0.79102 0.20703-0.31641 0.36719-0.67773 0.48047-1.084 0.11328-0.40625 0.16992-0.83203 0.16992-1.2773 0-0.57031-0.097657-1.1055-0.29297-1.6055-0.17188-0.4375-0.41016-0.8125-0.71484-1.125-0.27344-0.26562-0.61523-0.48828-1.0254-0.66797-0.41016-0.17969-0.88867-0.30469-1.4355-0.375-0.41406-0.054688-1.1094-0.082031-2.0859-0.082031-0.8125 0-1.7852 0.017578-2.918 0.052734-1.1328 0.035156-2.125 0.052734-2.9766 0.052734-0.60938 0-1.4336-0.011719-2.4727-0.035156 0.0078125 0.625 0.011719 1.1094 0.011719 1.4531 0 0.96094-0.037109 2.6133-0.11133 4.957-0.074219 2.3438-0.15039 4.1875-0.22852 5.5312-0.054688 0.98438-0.16406 2.3359-0.32812 4.0547l2.2734-0.011719 3.082 0.011719zm1.5352-9.7617h-1.6641l0.14062-3.1406h2.1094c0.625 0 1.0898 0.054688 1.3945 0.16406 0.30469 0.10938 0.52539 0.27734 0.66211 0.50391 0.13672 0.22656 0.20508 0.48438 0.20508 0.77344 0 0.20312-0.033203 0.40625-0.09961 0.60938-0.066406 0.20312-0.17969 0.38672-0.33984 0.55078-0.16016 0.16406-0.34961 0.28125-0.56836 0.35156-0.21875 0.070313-0.44336 0.11914-0.67383 0.14648-0.23047 0.027344-0.61914 0.041016-1.166 0.041016zm0.31641 6.5508h-2.25l0.14062-3.375h2.4727c0.53125 0 0.92188 0.029297 1.1719 0.087891 0.25 0.058594 0.46094 0.1543 0.63281 0.28711s0.30078 0.29688 0.38672 0.49219c0.085938 0.19531 0.12891 0.42188 0.12891 0.67969 0 0.29688-0.052735 0.56641-0.1582 0.80859-0.10547 0.24219-0.24805 0.43359-0.42773 0.57422-0.17969 0.14062-0.44141 0.25391-0.78516 0.33984-0.28125 0.070312-0.71875 0.10547-1.3125 0.10547zm14.344 3.2109c-0.03125-0.60156-0.046875-1.1055-0.046875-1.5117 0-1.1562 0.03125-2.1836 0.09375-3.082s0.17188-1.5547 0.32812-1.9688 0.36523-0.75977 0.62695-1.0371c0.26172-0.27734 0.5625-0.48438 0.90234-0.62109 0.33984-0.13672 0.74414-0.20508 1.2129-0.20508 0.375 0 0.77734 0.0625 1.207 0.1875l-0.082032-1.8047c-0.03125-0.55469-0.050781-1.2578-0.058593-2.1094-0.34375-0.078125-0.65625-0.11719-0.9375-0.11719-0.29688 0-0.58203 0.033203-0.85547 0.099609-0.27344 0.066406-0.53516 0.16797-0.78516 0.30469-0.25 0.13672-0.47266 0.28906-0.66797 0.45703-0.19531 0.16797-0.44531 0.42383-0.75 0.76758l0.046875-1.3242c-0.84375 0.015625-1.5898 0.023438-2.2383 0.023438-0.55469 0-1.3047-0.0078126-2.25-0.023438 0.015625 0.84375 0.023437 1.5508 0.023437 2.1211 0 0.5625-0.003906 1.1133-0.011719 1.6523l-0.11719 2.9883-0.36328 5.2031c0.86719-0.015625 1.6797-0.023438 2.4375-0.023438 0.76562 0 1.5273 0.0078125 2.2852 0.023438zm12.457 0.30469c0.63281 0 1.2578-0.029297 1.875-0.087891 0.61719-0.058594 1.3789-0.17773 2.2852-0.35742 0.28906-1.7969 0.48438-2.9297 0.58594-3.3984-0.96875 0.28906-1.7832 0.49414-2.4434 0.61523-0.66016 0.12109-1.248 0.18164-1.7637 0.18164-0.86719 0-1.6016-0.19922-2.2031-0.59766-0.60156-0.39844-0.90234-1.0195-0.90234-1.8633 0-0.10156 0.003906-0.21484 0.011719-0.33984l8.2148-0.011719c0.10156-0.54688 0.15234-1.043 0.15234-1.4883 0-0.75-0.11914-1.4492-0.35742-2.0977s-0.63867-1.2305-1.2012-1.7461-1.248-0.87695-2.0566-1.084c-0.80859-0.20703-1.6582-0.31055-2.5488-0.31055-0.85938 0-1.6992 0.11328-2.5195 0.33984-0.82031 0.22656-1.5449 0.60938-2.1738 1.1484-0.62891 0.53906-1.1426 1.2871-1.541 2.2441-0.39844 0.95703-0.59766 1.9355-0.59766 2.9355 0 0.71094 0.09961 1.4023 0.29883 2.0742 0.19922 0.67188 0.49023 1.252 0.87305 1.7402 0.38281 0.48828 0.85742 0.89648 1.4238 1.2246 0.56641 0.32812 1.2402 0.55664 2.0215 0.68555 0.78125 0.12891 1.6367 0.19336 2.5664 0.19336zm1.4062-7.6406h-3.8672c0.054687-0.3125 0.10938-0.55664 0.16406-0.73242 0.054688-0.17578 0.14062-0.35742 0.25781-0.54492 0.11719-0.1875 0.26367-0.35352 0.43945-0.49805 0.17578-0.14453 0.37305-0.25391 0.5918-0.32812 0.21875-0.074219 0.44531-0.11133 0.67969-0.11133 0.33594 0 0.63867 0.066406 0.9082 0.19922s0.47656 0.34375 0.62109 0.63281 0.2168 0.63672 0.2168 1.043c0 0.09375-0.003906 0.20703-0.011719 0.33984zm22.031 7.3359 0.75-1.8516 4.3125-10.113c-0.92188 0.015625-1.6641 0.023438-2.2266 0.023438-0.65625 0-1.3672-0.0078126-2.1328-0.023438l-1.9922 5.7305c-0.1875 0.53906-0.30469 0.88281-0.35156 1.0312l-0.1875 0.58594-0.15234-0.78516-1.6172-6.5625c-0.63281 0.015625-1.3672 0.023438-2.2031 0.023438-0.78906 0-1.5625-0.0078126-2.3203-0.023438l-1.6875 4.9336-0.77344 2.4141-0.28125-1.207-1.6641-6.1406c-0.65625 0.015625-1.3477 0.023438-2.0742 0.023438-0.77344 0-1.543-0.0078126-2.3086-0.023438 0.91406 2.4766 2.2344 6.4648 3.9609 11.965 0.95312-0.015625 1.7227-0.023438 2.3086-0.023438l0.19775 3.662e-4c0.47852 0.001709 1.0767 0.0093994 1.7944 0.023071 0.53125-1.375 1.375-3.7383 2.5312-7.0898 0.39062 1.8203 0.66406 3.0547 0.82031 3.7031l0.83203 3.3867c0.98438-0.015625 1.7852-0.023438 2.4023-0.023438 0.5625 0 1.25 0.0078125 2.0625 0.023438zm12.551 0.30469c0.63281 0 1.2578-0.029297 1.875-0.087891 0.61719-0.058594 1.3789-0.17773 2.2852-0.35742 0.28906-1.7969 0.48438-2.9297 0.58594-3.3984-0.96875 0.28906-1.7832 0.49414-2.4434 0.61523-0.66016 0.12109-1.248 0.18164-1.7637 0.18164-0.86719 0-1.6016-0.19922-2.2031-0.59766-0.60156-0.39844-0.90234-1.0195-0.90234-1.8633 0-0.10156 0.003906-0.21484 0.011719-0.33984l8.2148-0.011719c0.10156-0.54688 0.15234-1.043 0.15234-1.4883 0-0.75-0.11914-1.4492-0.35742-2.0977-0.23828-0.64844-0.63867-1.2305-1.2012-1.7461s-1.248-0.87695-2.0566-1.084c-0.80859-0.20703-1.6582-0.31055-2.5488-0.31055-0.85938 0-1.6992 0.11328-2.5195 0.33984-0.82031 0.22656-1.5449 0.60938-2.1738 1.1484-0.62891 0.53906-1.1426 1.2871-1.541 2.2441-0.39844 0.95703-0.59766 1.9355-0.59766 2.9355 0 0.71094 0.099609 1.4023 0.29883 2.0742s0.49023 1.252 0.87305 1.7402c0.38281 0.48828 0.85742 0.89648 1.4238 1.2246s1.2402 0.55664 2.0215 0.68555c0.78125 0.12891 1.6367 0.19336 2.5664 0.19336zm1.4062-7.6406h-3.8672c0.054687-0.3125 0.10938-0.55664 0.16406-0.73242 0.054688-0.17578 0.14062-0.35742 0.25781-0.54492 0.11719-0.1875 0.26367-0.35352 0.43945-0.49805 0.17578-0.14453 0.37305-0.25391 0.5918-0.32812 0.21875-0.074219 0.44531-0.11133 0.67969-0.11133 0.33594 0 0.63867 0.066406 0.9082 0.19922 0.26953 0.13281 0.47656 0.34375 0.62109 0.63281 0.14453 0.28906 0.2168 0.63672 0.2168 1.043 0 0.09375-0.003906 0.20703-0.011719 0.33984zm10.652 7.3359c-0.03125-0.60156-0.046875-1.1055-0.046875-1.5117 0-1.1562 0.03125-2.1836 0.09375-3.082s0.17188-1.5547 0.32812-1.9688 0.36523-0.75977 0.62695-1.0371c0.26172-0.27734 0.5625-0.48438 0.90234-0.62109 0.33984-0.13672 0.74414-0.20508 1.2129-0.20508 0.375 0 0.77734 0.0625 1.207 0.1875l-0.082031-1.8047c-0.03125-0.55469-0.050782-1.2578-0.058594-2.1094-0.34375-0.078125-0.65625-0.11719-0.9375-0.11719-0.29688 0-0.58203 0.033203-0.85547 0.099609-0.27344 0.066406-0.53516 0.16797-0.78516 0.30469-0.25 0.13672-0.47266 0.28906-0.66797 0.45703-0.19531 0.16797-0.44531 0.42383-0.75 0.76758l0.046875-1.3242c-0.84375 0.015625-1.5898 0.023438-2.2383 0.023438-0.55469 0-1.3047-0.0078126-2.25-0.023438 0.015625 0.84375 0.023437 1.5508 0.023437 2.1211 0 0.5625-0.003906 1.1133-0.011718 1.6523l-0.11719 2.9883-0.36328 5.2031c0.86719-0.015625 1.6797-0.023438 2.4375-0.023438 0.76562 0 1.5273 0.0078125 2.2852 0.023438zm7.5352 5.707c0.53125 0 1.0547-0.054687 1.5703-0.16406 0.46875-0.10156 0.89844-0.24219 1.2891-0.42188 0.28906-0.13281 0.55859-0.29688 0.80859-0.49219 0.26562-0.21094 0.51172-0.45703 0.73828-0.73828 0.24219-0.3125 0.49609-0.73438 0.76172-1.2656l4.0898-9.4805 2.2617-5.1094c-1.125 0.015625-1.9062 0.023438-2.3438 0.023438l-0.17549-2.894e-4c-0.49151-0.0015432-1.1713-0.0092593-2.0394-0.023148l-1.2656 3.2695-0.76172 2.1328c-0.15625 0.44531-0.28516 0.82812-0.38672 1.1484-0.10156 0.32031-0.19141 0.60547-0.26953 0.85547l-0.24609 0.9375c-0.09375-0.71094-0.19141-1.2969-0.29297-1.7578-0.17969-0.83594-0.4707-1.9922-0.87305-3.4688-0.40234-1.4766-0.67774-2.5156-0.82617-3.1172-0.94531 0.015625-1.6914 0.023438-2.2383 0.023438l-0.12443-1.628e-4c-0.4828-0.0011936-1.2577-0.0089518-2.3248-0.023275l1.8867 5.5312 2.2031 6.668c-0.085938 0.3125-0.17188 0.55273-0.25781 0.7207-0.085937 0.16797-0.2168 0.36914-0.39258 0.60352s-0.33789 0.4082-0.48633 0.52148c-0.14844 0.11328-0.34961 0.20898-0.60352 0.28711s-0.52539 0.11719-0.81445 0.11719c-0.27344 0-0.59961-0.042969-0.97852-0.12891-0.37891-0.085938-0.81445-0.24609-1.3066-0.48047 0.085937 0.45312 0.25 1.6133 0.49219 3.4805 0.40625 0.09375 0.73242 0.1582 0.97852 0.19336 0.24609 0.035156 0.56836 0.070312 0.9668 0.10547 0.39844 0.035156 0.71875 0.052734 0.96094 0.052734z" fill="#fff" fill-rule="nonzero"/>
<path d="m2.49 30.682c-0.051687 0-0.10286-0.010205-0.1506-0.03003-0.20026-0.083173-0.29518-0.31294-0.21209-0.51324 1.5714-3.7835 2.3623-6.9406 2.3727-9.4713 0.016368-3.9764-3.5836-7.9036-4.2709-11.389-0.44607-2.2622-0.24072-5.2534 0.61606-8.9736 0.041061-0.17829 0.19978-0.30461 0.38274-0.30458h17.508c0.18295-2.9952e-5 0.34168 0.12629 0.38274 0.30458 0.85678 3.7202 1.0621 6.7114 0.61606 8.9736-0.68727 3.4855-4.2873 7.4127-4.2709 11.389 0.010412 2.5307 0.8013 5.6878 2.3727 9.4713 0.083086 0.2003-0.011832 0.43006-0.21209 0.51324-0.047734 0.019825-0.098912 0.03003-0.1506 0.03003z" stroke="#34D76C" stroke-width="1.3745"/>
<path d="m17.492 3.8782c0.55748 2.919 0.27874 5.3938-0.83622 7.4244-1.6724 3.0459-3.1996 6.142-3.188 9.374 0.0074674 2.0819 0.58132 4.6852 1.7216 7.8101 0.046645 0.12738-0.018963 0.26837-0.14639 0.31487-0.026978 0.0098441-0.055474 0.014881-0.084192 0.014881h-9.9378c-0.028718 0-0.057214-0.0050366-0.084192-0.014881-0.12743-0.046498-0.19304-0.18749-0.14639-0.31487 1.1402-3.1249 1.7141-5.7282 1.7216-7.8101 0.011593-3.232-1.5156-6.3281-3.188-9.374-1.0643-1.9383-1.3666-4.2813-0.90705-7.0291l0.070836-0.39529h15.004zm-8.8031 19.489c-0.46091 0-0.83455 0.37364-0.83455 0.83455s0.37364 0.83455 0.83455 0.83455 0.83455-0.37364 0.83455-0.83455-0.37364-0.83455-0.83455-0.83455zm2.6018-4.1727c-0.46091 0-0.83455 0.37364-0.83455 0.83455s0.37364 0.83455 0.83455 0.83455 0.83455-0.37364 0.83455-0.83455-0.37364-0.83455-0.83455-0.83455zm-2.1109-4.4673c-0.46091 0-0.83455 0.37364-0.83455 0.83455 0 0.46091 0.37364 0.83455 0.83455 0.83455s0.83455-0.37364 0.83455-0.83455c0-0.46091-0.37364-0.83455-0.83455-0.83455zm4.1236-4.5164c-0.46091 0-0.83455 0.37364-0.83455 0.83455s0.37364 0.83455 0.83455 0.83455 0.83455-0.37364 0.83455-0.83455-0.37364-0.83455-0.83455-0.83455zm-5.4491-1.62c-0.46091 0-0.83455 0.37364-0.83455 0.83455s0.37364 0.83455 0.83455 0.83455 0.83455-0.37364 0.83455-0.83455-0.37364-0.83455-0.83455-0.83455zm5.0564-1.9145c-0.46091 0-0.83455 0.37364-0.83455 0.83455s0.37364 0.83455 0.83455 0.83455 0.83455-0.37364 0.83455-0.83455-0.37364-0.83455-0.83455-0.83455z" fill="#D7FF1E"/>
<circle cx="7.8546" cy="9.4255" r="1" fill="#D7FF1E"/>
<circle cx="13.304" cy="11.045" r="1" fill="#D7FF1E"/>
<circle cx="9.18" cy="15.562" r="1" fill="#D7FF1E"/>
<circle cx="11.291" cy="20.029" r="1" fill="#D7FF1E"/>
<circle cx="8.6891" cy="24.202" r="1" fill="#D7FF1E"/>
<circle cx="12.911" cy="7.5109" r="1" fill="#D7FF1E"/>
</g>
</g>
</g>
</g>
</svg>
