<?xml version="1.0" encoding="UTF-8"?>
<svg width="150px" height="27px" viewBox="0 0 150 27" version="1.1" xmlns="http://www.w3.org/2000/svg" xmlns:xlink="http://www.w3.org/1999/xlink">
    <title>logo@2x</title>
    <defs>
        <linearGradient x1="34.0244611%" y1="65.4382455%" x2="68.1362383%" y2="65.4382455%" id="linearGradient-1">
            <stop stop-color="#774EFF" offset="0%"></stop>
            <stop stop-color="#6C81FF" offset="100%"></stop>
        </linearGradient>
    </defs>
    <g id="页面-1" stroke="none" stroke-width="1" fill="none" fill-rule="evenodd">
        <g id="兑换备份" transform="translate(-350.000000, -42.000000)">
            <g id="logo" transform="translate(350.000000, 42.000000)">
                <path d="M109.844546,26.2376204 L111.938919,21.8525249 C112.533977,20.6066229 114.02637,20.0790094 115.272272,20.674067 C115.788316,20.9205361 116.20426,21.3364802 116.45073,21.8525249 L118.545104,26.2376204 L118.545104,26.2376204 L109.844546,26.2376204 Z" id="路径-4" fill="#F1CD45"></path>
                <path d="M74.906367,0.13594622 C74.906367,2.41208673 73.0611906,4.2572632 70.7850501,4.2572632 L58.79674,4.2572632 C57.2401495,4.2572632 55.9677577,5.47406249 55.878858,7.00836765 L55.8738963,7.18010692 L55.8738963,8.2032811 C55.8738963,9.75987161 57.0906956,11.0322634 58.6250007,11.1211631 L58.79674,11.1261248 L68.6532092,11.1261248 C72.7016958,11.1261248 75.9986728,14.3437198 76.1264095,18.3611789 L76.1302513,18.6031669 L76.1302513,18.7605783 C76.1302513,22.8090649 72.9126563,26.1060419 68.8951972,26.2337786 L68.6532092,26.2376204 L53.4268643,26.2376204 C53.4268643,23.9614799 55.2720408,22.1163034 57.5481813,22.1163034 L69.1290209,22.1163034 L69.3007602,22.1113417 C70.7760536,22.0258612 71.957795,20.8461758 72.0465158,19.3717539 L72.0518647,19.1934597 L72.0518647,18.1702855 L72.046903,17.9985462 C71.9614225,16.5232528 70.781737,15.3415114 69.3073151,15.2527906 L69.1290209,15.2474418 L59.2725518,15.2474418 C55.1430955,15.2474418 51.7955097,11.899856 51.7955097,7.77039971 L51.7955097,7.6129883 C51.7955097,3.48353199 55.1430955,0.13594622 59.2725518,0.13594622 L74.906367,0.13594622 Z M143.015423,0.13594622 C146.769474,0.13594622 149.812734,3.17920601 149.812734,6.9332572 C149.812734,10.6873084 146.769474,13.7305682 143.015423,13.7305682 L135.130542,13.7305682 C135.130542,11.4781375 136.956498,9.6521816 139.208929,9.6521816 L143.015423,9.6521816 C144.461428,9.6521816 145.643787,8.52337852 145.729385,7.0988865 L145.734347,6.9332572 C145.734347,5.4872523 144.605544,4.30489348 143.181052,4.21929489 L143.015423,4.21433281 L132.139339,4.21394622 L132.139726,26.2376204 L128.061339,26.2376204 L128.061339,0.13594622 L143.015423,0.13594622 Z M14.9998743,0.13594622 C16.1800207,0.13594622 17.1920338,0.978258686 17.4062579,2.13879894 C19.5998171,14.0229802 20.741873,20.5995532 20.8324254,21.868518 L20.8324254,21.868518 L21.1189787,21.868518 C21.1700208,20.6565099 22.1829303,14.7778015 24.1577072,4.2323928 C24.60249,1.85728324 26.6760935,0.13594622 29.092491,0.13594622 L29.092491,0.13594622 L23.8352374,26.2376204 L17.7589745,26.2376204 L14.6821917,7.6129883 L14.4102993,7.6129883 L11.3768327,26.2376204 L5.25725356,26.2376204 L-9.00020799e-14,0.13594622 L0.227915349,0.141041995 C2.57157948,0.246008706 4.54713738,1.96187152 4.96319039,4.29117943 L4.96319039,4.29117943 L8.10279453,21.868518 L8.38934784,21.868518 L11.6267684,2.18582536 C11.8212319,1.00353709 12.8431821,0.13594622 14.0413564,0.13594622 L14.0413564,0.13594622 Z M91.1297573,0.13594622 C92.3099037,0.13594622 93.3219168,0.978258686 93.5361409,2.13879894 C95.7297002,14.0229802 96.871756,20.5995532 96.9623084,21.868518 L96.9623084,21.868518 L97.2488617,21.868518 C97.2999038,20.6565099 98.3128133,14.7778015 100.28759,4.2323928 C100.732373,1.85728324 102.805976,0.13594622 105.222374,0.13594622 L105.222374,0.13594622 L99.9651205,26.2376204 L93.8888576,26.2376204 L90.8120747,7.6129883 L90.5401823,7.6129883 L87.5067157,26.2376204 L81.3871366,26.2376204 L76.129883,0.13594622 L76.3577984,0.141041995 C78.7014625,0.246008706 80.6770204,1.96187152 81.0930734,4.29117943 L81.0930734,4.29117943 L84.2326776,21.868518 L84.5192309,21.868518 L87.7566515,2.18582536 C87.9511149,1.00353709 88.9730651,0.13594622 90.1712394,0.13594622 L90.1712394,0.13594622 Z M114.241008,0.0383531968 L114.880041,1.3143532 L116.748041,4.98680469 L116.735041,5.0123532 L127.381608,26.2376204 L122.351598,26.2376204 L114.279041,9.8843532 L106.038051,26.2376204 L101.008041,26.2376204 L114.082041,0.352353197 L114.241008,0.0383531968 Z M52.4752408,2.04873155e-13 C52.4752408,2.25243072 50.6492849,4.07838659 48.3968542,4.07838659 L33.9865549,4.07838659 L33.9865549,22.0232876 L48.3968542,22.0232876 C50.5810294,22.0232876 52.3641852,23.7402562 52.4702496,25.8981216 L52.4752408,26.1016742 L29.9081683,26.1016742 L29.9081683,2.04873155e-13 L52.4752408,2.04873155e-13 Z M46.4759511,11.0116438 C47.6021665,11.0116438 48.5151444,11.9246217 48.5151444,13.0508371 C48.5151444,14.1770524 47.6021665,15.0900304 46.4759511,15.0900304 L39.2708015,15.0900304 C38.1445861,15.0900304 37.2316082,14.1770524 37.2316082,13.0508371 C37.2316082,11.9246217 38.1445861,11.0116438 39.2708015,11.0116438 L46.4759511,11.0116438 Z" id="形状结合" fill="url(#linearGradient-1)"></path>
            </g>
        </g>
    </g>
</svg>