<?xml version="1.0" encoding="UTF-8"?>
<svg width="28px" height="28px" viewBox="0 0 28 28" version="1.1" xmlns="http://www.w3.org/2000/svg" xmlns:xlink="http://www.w3.org/1999/xlink">
    <title>切换账号@2x</title>
    <g id="页面1" stroke="none" stroke-width="1" fill="none" fill-rule="evenodd">
        <g id="cbridge" transform="translate(-946.000000, -442.000000)">
            <g id="切换账号" transform="translate(960.000000, 456.000000) rotate(90.000000) translate(-960.000000, -456.000000) translate(946.000000, 442.000000)">
                <rect id="矩形" fill="#000000" x="0" y="0" width="28" height="28" rx="6"></rect>
                <g id="编组-7" opacity="0.801641555" transform="translate(6.000000, 6.000000)" fill="#55BC7E" fill-rule="nonzero">
                    <path d="M14.4984326,6.04623824 L0.862068966,6.04623824 C0.39184953,6.04623824 1.33226763e-13,5.65438871 1.33226763e-13,5.18416928 C1.33226763e-13,4.71394984 0.39184953,4.32210031 0.862068966,4.32210031 L14.4984326,4.32210031 C14.968652,4.32210031 15.3605016,4.71394984 15.3605016,5.18416928 C15.3605016,5.65438871 14.968652,6.04623824 14.4984326,6.04623824 Z" id="路径"></path>
                    <path d="M10.7836991,0.246865204 L15.1097179,4.57288401 C15.4388715,4.90203762 15.4388715,5.45062696 15.1097179,5.79545455 C14.7805643,6.12460815 14.2319749,6.12460815 13.8871473,5.79545455 L9.56112853,1.46943574 C9.23197492,1.14028213 9.23197492,0.59169279 9.56112853,0.246865204 C9.90595611,-0.0822884013 10.4545455,-0.0822884013 10.7836991,0.246865204 Z M1.47335423,8.25626959 L5.79937304,12.5822884 C6.12852665,12.911442 6.12852665,13.4600313 5.79937304,13.8048589 C5.47021944,14.1340125 4.92163009,14.1340125 4.57680251,13.8048589 L0.250783699,9.47884013 C-0.078369906,9.14968652 -0.078369906,8.60109718 0.250783699,8.25626959 C0.579937304,7.91144201 1.12852665,7.91144201 1.47335423,8.25626959 Z" id="形状"></path>
                    <path d="M14.4984326,9.72962382 L0.862068966,9.72962382 C0.39184953,9.72962382 1.33226763e-13,9.33777429 1.33226763e-13,8.86755486 C1.33226763e-13,8.39733542 0.39184953,8.00548589 0.862068966,8.00548589 L14.4984326,8.00548589 C14.968652,8.00548589 15.3605016,8.39733542 15.3605016,8.86755486 C15.3605016,9.33777429 14.968652,9.72962382 14.4984326,9.72962382 Z" id="路径"></path>
                </g>
            </g>
        </g>
    </g>
</svg>