<?xml version="1.0" encoding="UTF-8"?>
<svg width="46px" height="46px" viewBox="0 0 46 46" version="1.1" xmlns="http://www.w3.org/2000/svg" xmlns:xlink="http://www.w3.org/1999/xlink">
    <title>切换账号@2x</title>
    <defs>
        <filter x="-42.9%" y="-42.9%" width="185.7%" height="185.7%" filterUnits="objectBoundingBox" id="filter-1">
            <feOffset dx="0" dy="0" in="SourceAlpha" result="shadowOffsetOuter1"></feOffset>
            <feGaussianBlur stdDeviation="3" in="shadowOffsetOuter1" result="shadowBlurOuter1"></feGaussianBlur>
            <feColorMatrix values="0 0 0 0 0.433115986   0 0 0 0 0.43593248   0 0 0 0 0.906080163  0 0 0 0.237461757 0" type="matrix" in="shadowBlurOuter1" result="shadowMatrixOuter1"></feColorMatrix>
            <feMerge>
                <feMergeNode in="shadowMatrixOuter1"></feMergeNode>
                <feMergeNode in="SourceGraphic"></feMergeNode>
            </feMerge>
        </filter>
    </defs>
    <g id="页面-1" stroke="none" stroke-width="1" fill="none" fill-rule="evenodd">
        <g id="兑换备份" transform="translate(-937.000000, -354.000000)">
            <g id="编组-15" transform="translate(695.000000, 160.000000)">
                <g id="编组-6">
                    <g id="切换账号" filter="url(#filter-1)" transform="translate(265.000000, 217.000000) rotate(90.000000) translate(-265.000000, -217.000000) translate(251.000000, 203.000000)">
                        <circle id="椭圆形" fill="#FFFFFF" cx="14" cy="14" r="14"></circle>
                        <g id="编组-7" opacity="0.801641555" transform="translate(6.000000, 6.000000)" fill="#6E6FE7" fill-rule="nonzero">
                            <path d="M0.971819026,8.00550074 L14.4984326,8.00548589 C14.968652,8.00548589 15.3605016,8.39733542 15.3605016,8.86755486 C15.3605016,9.33777429 14.968652,9.72962382 14.4984326,9.72962382 L2.946,9.729 L5.79937304,12.5822884 C6.12852665,12.911442 6.12852665,13.4600313 5.79937304,13.8048589 C5.47021944,14.1340125 4.92163009,14.1340125 4.57680251,13.8048589 L0.250783699,9.47884013 C0.141065831,9.36912226 0.0679205852,9.23502264 0.0313479624,9.09221526 L0.0266821528,9.077873 C0.00927454508,9.01038285 9.32587341e-13,8.93989631 9.32587341e-13,8.86755486 C9.32587341e-13,8.71954591 0.0388234491,8.57930165 0.106694115,8.45659832 C0.144475446,8.38486274 0.192462793,8.31736768 0.250783699,8.25626959 C0.444036763,8.053814 0.712931808,7.97022438 0.971819026,8.00550074 Z M10.7836991,0.246865204 L15.1097179,4.57288401 C15.2204423,4.68360847 15.29392,4.81916409 15.330151,4.96344155 C15.3502565,5.03415361 15.3605016,5.10813694 15.3605016,5.18416928 C15.3605016,5.33378455 15.3208309,5.47546569 15.2515874,5.59911467 C15.2147095,5.66870938 15.1672399,5.73519341 15.1097179,5.79545455 C15.0222048,5.88296761 14.9191802,5.94721331 14.8085976,5.98819165 C14.7120233,6.02522226 14.6073296,6.04623824 14.4984326,6.04623824 L0.862068966,6.04623824 C0.39184953,6.04623824 9.32587341e-13,5.65438871 9.32587341e-13,5.18416928 C9.32587341e-13,4.71394984 0.39184953,4.32210031 0.862068966,4.32210031 L12.414,4.322 L9.56112853,1.46943574 C9.23197492,1.14028213 9.23197492,0.59169279 9.56112853,0.246865204 C9.90595611,-0.0822884013 10.4545455,-0.0822884013 10.7836991,0.246865204 Z" id="形状结合"></path>
                        </g>
                    </g>
                </g>
            </g>
        </g>
    </g>
</svg>