<?xml version="1.0" encoding="UTF-8"?>
<svg width="24px" height="23px" viewBox="0 0 24 23" version="1.1" xmlns="http://www.w3.org/2000/svg" xmlns:xlink="http://www.w3.org/1999/xlink">
    <title>设置@2x</title>
    <g id="页面1" stroke="none" stroke-width="1" fill="none" fill-rule="evenodd">
        <g id="cbridge" transform="translate(-1186.000000, -211.000000)" fill="#6E6FE7" fill-rule="nonzero">
            <g id="设置" transform="translate(1186.000000, 211.000000)">
                <path d="M12.0001127,6.55232043 C9.30238781,6.55232043 7.10760282,8.77167036 7.10760282,11.4996039 C7.10760282,14.2276527 9.30238781,16.4471754 12.0001127,16.4471754 C12.2626238,16.4471754 12.5401759,16.4196377 12.8753283,16.3602415 C13.3761839,16.2678634 13.709083,15.7820934 13.6174857,15.2773121 C13.5369861,14.8344618 13.1580067,14.5129964 12.7161035,14.5129964 C12.6590946,14.5129964 12.6016069,14.518527 12.5475555,14.528868 C12.3290685,14.5683599 12.1557886,14.5867664 12.002366,14.5867664 C10.3189426,14.5867664 8.94943421,13.2017863 8.94943421,11.4996039 C8.94943421,9.79750793 10.3168583,8.41272945 11.9977467,8.41272945 C13.679987,8.41272945 15.048397,9.79750793 15.048397,11.4996039 C15.048397,11.6654639 15.0303141,11.839735 14.9909093,12.0494076 C14.899312,12.5540738 15.2322956,13.0399589 15.732954,13.1321354 C15.7881884,13.1422748 15.8442959,13.1475173 15.9000373,13.1475173 C16.3460528,13.1475173 16.7263279,12.8257639 16.8037574,12.3842098 C16.8626252,12.0618515 16.8901459,11.7808285 16.8901459,11.4998055 C16.8913268,10.1803571 16.3826973,8.93850971 15.4579369,8.00303386 C14.5332047,7.06752924 13.3051481,6.55232043 12.0001127,6.55232043 Z" id="路径"></path>
                <path d="M23.7834846,9.22635955 C23.7233211,8.90472131 23.4796814,8.6493061 23.1624147,8.57553613 C22.0088583,8.30787874 21.0490025,7.59230135 20.4598734,6.56145166 C19.8726314,5.53230148 19.7389535,4.33487164 20.0830628,3.19173952 C20.1801807,2.87862761 20.08326,2.53768991 19.8366628,2.3236101 C18.6844584,1.31808013 17.3721842,0.551949717 15.9365128,0.0467651074 C15.849732,0.0161164286 15.7593178,0.000619253721 15.6674107,0.000619253721 C15.4401639,0.000619253721 15.2219867,0.09720291 15.0694373,0.264560795 C14.2646941,1.13842244 13.1745967,1.61966999 12.0001126,1.61966999 C10.8255159,1.61966999 9.73465806,1.13761591 8.92811218,0.262025941 C8.71128696,0.0274368407 8.36357232,-0.0620319347 8.05886781,0.0445183029 C6.61426767,0.556040034 5.30275393,1.32294821 4.16021066,2.32427261 C3.91755681,2.53797799 3.82103045,2.87658244 3.91428952,3.187678 C4.26073667,4.33181831 4.1278756,5.52913293 3.54001392,6.55940649 C2.95356058,7.58956486 1.99449345,8.30482538 0.83778244,8.57380781 C0.52012139,8.65008383 0.276369053,8.90630557 0.216825217,9.22592746 C0.0729229083,9.99073284 0,10.7557398 0,11.4995463 C0,12.2434391 0.0729229083,13.0084461 0.216712557,13.7729634 C0.276566242,14.0941984 0.52012139,14.3497 0.837472619,14.4237869 C1.99114166,14.6915595 2.95099743,15.40682 3.54021111,16.4377849 C4.12784745,17.4678569 4.2607367,18.6651715 3.91409236,19.8099167 C3.8215093,20.1187078 3.91744415,20.4577156 4.16108383,20.6757417 C5.31297837,21.6808684 6.62440761,22.4468836 8.06033249,22.9530764 C8.3759374,23.0624495 8.71373745,22.9685447 8.92611238,22.736865 C9.7325456,21.8616783 10.8232908,21.3796242 11.9977185,21.3796242 C13.1721462,21.3796242 14.2630886,21.8616783 15.0684233,22.7359432 C15.2213671,22.9035892 15.4398541,23 15.6679741,23 C15.7581912,23 15.8479294,22.9853382 15.9385408,22.9549775 C17.3733109,22.449188 18.6848246,21.6830864 19.8375078,20.6773548 C20.0794857,20.4640527 20.1762937,20.1248434 20.0836262,19.8115298 C19.7368692,18.6664677 19.8704344,17.4693548 20.4599579,16.4400029 C21.0469182,15.409038 22.0066614,14.6938927 23.1626964,14.4260049 C23.476217,14.3530415 23.7196876,14.0985192 23.7833719,13.7755847 C23.9271616,13.0103761 24,12.2454555 24,11.5019659 C24,10.7568921 23.9271897,9.99107851 23.7834846,9.22635955 Z M18.0059009,19.2778281 C17.2895157,19.8452318 16.4992782,20.3067766 15.6528768,20.6520351 C14.6431946,19.7472079 13.3517354,19.2507801 11.9977748,19.2507801 C10.6510812,19.2507801 9.35981916,19.7472079 8.34334884,20.6522367 C7.49711647,20.3070647 6.70679445,19.8456063 5.99021216,19.2782025 C6.26255344,17.9427673 6.04220739,16.5632313 5.36364982,15.3759697 C4.69069733,14.1946419 3.61780965,13.3115338 2.33077253,12.8751935 C2.26522923,12.4151466 2.2321055,11.9530833 2.2321055,11.4995751 C2.2321055,11.047968 2.26522923,10.5861064 2.33077253,10.1244463 C3.61378184,9.69124574 4.68647236,8.80822407 5.36364982,7.62338209 C6.03865844,6.44044123 6.25891998,5.0608765 5.98981784,3.72135087 C6.70611846,3.15414879 7.4964123,2.69269037 8.34303902,2.34723029 C9.35655187,3.25367054 10.6479266,3.75078973 11.9977467,3.75078973 C13.3518199,3.75078973 14.6431664,3.25436188 15.6528487,2.34953471 C16.4992782,2.69490838 17.2894031,3.1563668 18.0057037,3.72356888 C17.7357002,5.06441951 17.9551731,6.44375385 18.6296184,7.62560009 C19.3024864,8.80692786 20.3751488,9.69015116 21.662383,10.1266643 C21.7279263,10.5879211 21.76105,11.0499844 21.76105,11.5042991 C21.7649933,11.9390263 21.7326583,12.3993614 21.6647208,12.8751935 C20.3775711,13.3116203 19.304796,14.194642 18.6318436,15.3758545 C17.9583277,16.5561164 17.7381789,17.9354508 18.0059009,19.2778281 Z" id="形状"></path>
            </g>
        </g>
    </g>
</svg>