<?xml version="1.0" encoding="UTF-8"?>
<svg width="40px" height="38px" viewBox="0 0 40 38" version="1.1" xmlns="http://www.w3.org/2000/svg" xmlns:xlink="http://www.w3.org/1999/xlink">
    <title>logo@2x</title>
    <defs>
        <linearGradient x1="95.6042225%" y1="132.339434%" x2="0%" y2="4.875%" id="linearGradient-1">
            <stop stop-color="#FFD06A" offset="0%"></stop>
            <stop stop-color="#FFE174" offset="100%"></stop>
        </linearGradient>
        <linearGradient x1="95.6042225%" y1="131.886206%" x2="0%" y2="5.12338526%" id="linearGradient-2">
            <stop stop-color="#FFD06A" offset="0%"></stop>
            <stop stop-color="#FFE174" offset="100%"></stop>
        </linearGradient>
        <linearGradient x1="95.6042225%" y1="132.256409%" x2="0%" y2="4.9205003%" id="linearGradient-3">
            <stop stop-color="#FFD06A" offset="0%"></stop>
            <stop stop-color="#FFFF74" offset="100%"></stop>
        </linearGradient>
    </defs>
    <g id="页面-1" stroke="none" stroke-width="1" fill="none" fill-rule="evenodd">
        <g id="首页网页版备份-7" transform="translate(-350.000000, -36.000000)">
            <g id="logo1备份-5" transform="translate(350.000000, 36.000000)">
                <path d="M7.84946041,33.6268949 L8.27850705,25.7711813 C8.30432612,25.2984418 8.15600754,24.8326302 7.86160501,24.4618522 L2.67754333,17.9329136 C1.69261704,16.6924724 1.89975273,14.8884557 3.14019386,13.9035294 C3.43737658,13.6675625 3.77843332,13.4929187 4.1436012,13.3897181 L11.8848178,11.2019608 C12.3249218,11.0775823 12.7067774,10.8014023 12.9627026,10.4223722 L17.5647463,3.60665728 C18.4510916,2.29396304 20.2337653,1.94833888 21.5464595,2.8346841 C21.8687725,3.05231328 22.1434552,3.33322303 22.3538057,3.66033278 L26.6789034,10.3861629 C26.9369382,10.7874252 27.3340555,11.079275 27.794062,11.2057164 L35.7684805,13.3976351 C37.2957473,13.817433 38.1935281,15.3958408 37.7737302,16.9231076 C37.6686861,17.3052685 37.4855716,17.6615088 37.2359414,17.9693497 L31.974476,24.457722 C31.6719595,24.8307814 31.5189306,25.3029802 31.5451236,25.7825669 L31.9723105,33.6042287 C32.0586884,35.1857826 30.8466088,36.5379086 29.2650549,36.6242865 C28.8665247,36.6460526 28.4678389,36.5843946 28.0945023,36.4432569 L20.6796508,33.6401156 C20.2414747,33.4744657 19.7580959,33.4733216 19.3191405,33.6368955 L11.7145585,36.4706937 C10.2303497,37.0237745 8.57880022,36.2689461 8.02571944,34.7847374 C7.88794778,34.415023 7.82794378,34.0208578 7.84946041,33.6268949 Z" id="路径-16备份" stroke="url(#linearGradient-1)" stroke-width="0.716981132"></path>
                <path d="M10.4278856,32.6905661 L10.8640111,24.7272485 C10.8846279,24.3508014 10.7662827,23.9798907 10.5314484,23.6849495 L5.34663655,17.1730624 C4.95725257,16.6840139 5.03804664,15.9719037 5.52709515,15.5825197 C5.64487633,15.4887415 5.78018254,15.4194025 5.92509229,15.3785622 L13.7302589,13.1788111 C14.079771,13.0803072 14.3831681,12.8613351 14.586757,12.5606471 L19.218268,5.72019495 C19.5687498,5.20255527 20.2725013,5.06704702 20.7901409,5.41752881 C20.9164391,5.50304238 21.0241517,5.61319951 21.10681,5.74138461 L25.4855561,12.5318755 C25.6908435,12.850232 26.0063783,13.0816491 26.3717077,13.18179 L34.3972753,15.3816883 C35.0001664,15.5469475 35.3549372,16.1696564 35.1896779,16.7725475 C35.1481187,16.924162 35.0754326,17.065457 34.9762512,17.1874291 L29.6954618,23.681684 C29.4541667,23.978426 29.3320681,24.3544143 29.3529831,24.7363065 L29.7881242,32.6816493 C29.8223093,33.3058445 29.3440117,33.8395673 28.7198164,33.8737525 C28.5628177,33.8823508 28.4057495,33.8581452 28.2586238,33.8026784 L20.7173481,30.9596004 C20.3699336,30.8286243 19.9868706,30.8277195 19.6388412,30.957053 L11.9523783,33.8134696 C11.366401,34.0312285 10.7148441,33.7327284 10.4970853,33.1467511 C10.4429417,33.0010536 10.4193858,32.8457661 10.4278856,32.6905661 Z" id="路径-16备份" stroke="url(#linearGradient-2)" stroke-width="1.0754717"></path>
                <g id="编组-33备份-2" transform="translate(8.213235, 8.607999)">
                    <path d="M12.4131255,0.154241037 C12.5123205,0.22154039 12.5969639,0.308106314 12.6620188,0.408787538 L16.1287403,5.7740033 C16.2909748,6.0250829 16.5401009,6.20751848 16.8284401,6.28639494 L23.179747,8.0238228 C23.6558561,8.15406452 23.936237,8.64560894 23.8059952,9.12171799 C23.7731219,9.24188915 23.7154872,9.35385997 23.63679,9.45044424 L19.4595819,14.5770914 C19.2685297,14.8115679 19.171832,15.1088893 19.1884054,15.4108917 L19.5326955,21.6845934 C19.5597428,22.1774536 19.1821268,22.5989219 18.6892666,22.6259693 C18.5654698,22.632763 18.4416135,22.6137252 18.3255717,22.570066 L12.3541815,20.3234117 C12.0803166,20.2203738 11.7784606,20.2196619 11.5041127,20.321407 L5.41785815,22.578565 C4.95505776,22.7501999 4.44074635,22.5141636 4.26911146,22.0513633 C4.22649396,21.9364484 4.20796742,21.8139961 4.21468336,21.6916173 L4.55975169,15.4037334 C4.57608899,15.1060327 4.48236112,14.8127219 4.29641796,14.5796602 L0.195141514,9.43910837 C-0.112697813,9.05326166 -0.0494603347,8.49091802 0.336386374,8.18307869 C0.429670602,8.10865392 0.536914899,8.05366434 0.651793158,8.02135366 L6.82866397,6.28404609 C7.10451278,6.20646082 7.34404917,6.03384769 7.50492961,5.79672005 L11.1717529,0.392053278 C11.4488784,-0.0164123438 12.0046599,-0.122884511 12.4131255,0.154241037 Z M10.5867654,15.0920007 L10.0867654,15.1920007 L9.98676544,15.6920007 L9.58676544,15.6920007 L9.38676544,16.1920007 L9.98676544,16.1920007 L9.95423948,16.4210664 C9.79553129,17.6095324 9.87303995,18.2665105 10.1867654,18.3920007 C10.5200988,18.525334 10.8200988,18.4586674 11.0867654,18.1920007 L11.0867654,18.1920007 L11.0867654,17.6920007 L11.0117654,17.7841882 C10.8367654,17.9810632 10.6617654,18.050334 10.4867654,17.9920007 C10.2867654,17.925334 10.2867654,17.325334 10.4867654,16.1920007 L10.4867654,16.1920007 L11.1867654,16.1920007 L11.2867654,15.6920007 L10.4867654,15.6920007 L10.5867654,15.0920007 Z M13.2608975,15.5926472 L13.0635642,15.5939805 C12.2315642,15.6209434 11.7000086,15.9233138 11.4688975,16.5010916 C11.0688975,17.5010916 11.3688975,18.4010916 11.9688975,18.4010916 C12.3688975,18.4010916 12.6688975,18.0677583 12.8688975,17.4010916 C12.8022309,17.9344249 12.9022309,18.2344249 13.1688975,18.3010916 C13.4355642,18.3677583 13.6688975,18.2344249 13.8688975,17.9010916 L13.8688975,17.9010916 L13.9688975,17.3010916 L13.9022309,17.425783 C13.7244531,17.735248 13.5466753,17.8603509 13.3688975,17.8010916 C13.1688975,17.7344249 13.2022309,17.0010916 13.4688975,15.6010916 L13.4688975,15.6010916 L13.2608975,15.5926472 Z M14.4867654,15.5920007 C14.2200988,15.5920007 14.0200988,15.7648402 13.8867654,16.1105192 L13.8867654,16.1105192 L13.8867654,16.525334 C14.0200988,16.2487908 14.1534321,16.1450871 14.2867654,16.2142229 C14.4200988,16.2833587 14.4867654,16.4561982 14.4867654,16.7327414 L14.4867654,16.7327414 L14.4867654,18.3920007 L15.0867654,18.3920007 C15.0867654,17.6315069 15.1534321,17.1129883 15.2867654,16.8364451 C15.4200988,16.5599019 15.6867654,16.3524945 16.0867654,16.2142229 L16.0867654,16.2142229 L16.2867654,15.6957044 C16.0867654,15.5574328 15.8534321,15.5574328 15.5867654,15.6957044 C15.3200988,15.833976 15.0867654,16.1450871 14.8867654,16.6290377 C14.8867654,15.9376797 14.7534321,15.5920007 14.4867654,15.5920007 Z M9.43120988,14.5466744 C9.01639507,14.2964686 8.60158025,14.230625 8.18676544,14.3491435 C7.48676544,14.5491435 7.28676544,15.4491435 7.68676544,15.9491435 C8.08676544,16.4491435 8.88676544,16.7491435 8.98676544,17.2491435 C9.08676544,17.7491435 8.48676544,17.9491435 8.18676544,17.8491435 C7.98676544,17.7824769 7.7534321,17.5158102 7.48676544,17.0491435 L7.48676544,17.0491435 L7.08676544,17.4491435 L7.2188642,17.6182793 C7.56783539,18.0462629 7.89046914,18.2898843 8.18676544,18.3491435 C8.68676544,18.4491435 9.58676544,18.1491435 9.48676544,17.1491435 C9.38676544,16.1491435 7.78676544,15.9491435 8.08676544,15.2491435 C8.28676544,14.7824769 8.72009877,14.7824769 9.38676544,15.2491435 L9.38676544,15.2491435 L9.58676544,14.6491435 Z M12.9688975,16.0010916 C12.9022309,16.6010916 12.7355642,17.0677583 12.4688975,17.4010916 C12.0688975,17.9010916 11.5688975,18.1010916 11.7688975,17.1010916 C11.9022309,16.4344249 12.3022309,16.0677583 12.9688975,16.0010916 Z M16.6225378,9.54958773 L16.5379849,9.64693094 L16.5379849,10.1219189 C16.7282289,9.93192373 16.8867654,9.868592 17.0135947,9.93192373 C17.2038386,10.0269213 16.7282289,12.3068636 17.3940825,12.4018612 C17.8379849,12.4651929 18.2501801,12.0535367 18.6306679,11.1668925 C18.3135947,13.0668444 17.9648142,14.1118179 17.5843264,14.3018131 C17.2331069,14.4771933 16.9089043,14.3287947 16.6117185,13.8566173 L16.5379849,13.7318275 L15.9672532,13.6368299 C16.0306679,14.080152 16.3160337,14.4284766 16.8233508,14.6818035 C17.5843264,15.0617939 18.345302,14.3968107 18.6306679,13.6368299 C18.8122643,13.1532058 19.0805318,11.832857 19.4354703,9.67578352 L19.4867654,9.36193816 L18.9160337,9.36193816 C18.4087167,10.8818997 17.9965215,11.6418804 17.6794484,11.6418804 C17.2038386,11.6418804 17.6794484,9.55193335 17.2989606,9.36193816 C17.0734863,9.24934841 16.848012,9.31189827 16.6225378,9.54958773 Z M6.16969226,8.31696461 C5.40871666,8.88695018 5.69408251,10.5969069 5.50383861,11.1668925 C5.3135947,11.736878 4.64774105,11.8318756 4.26725324,12.0218708 C4.0135947,12.1485343 3.88676544,12.3068636 3.88676544,12.4968588 C5.34530202,12.686854 6.32822885,12.7501857 6.83554592,12.686854 C7.27944836,12.6314387 7.62624714,12.5032909 7.87594226,12.3024106 L7.97700934,12.211866 L8.07213129,11.6418804 L7.91095243,11.7606274 C7.6379172,11.945345 7.342863,12.064092 7.02578983,12.1168684 C6.64530202,12.1802001 6.13798495,12.1485343 5.50383861,12.0218708 C5.88432641,11.8318756 6.10627763,11.515217 6.16969226,11.0718949 C6.26481422,10.4069117 5.97944836,9.17194297 6.45505812,8.69695499 C6.74330646,8.40908349 7.08396358,8.38291335 7.4770295,8.61844458 L7.59652153,8.69695499 L7.88188739,8.22196702 L7.72467194,8.15005911 C7.15305947,7.91300493 6.63473292,7.9686401 6.16969226,8.31696461 Z M16.6331069,6.89200069 C15.4916435,6.89200069 14.7940825,7.2403252 14.540424,7.93697423 C14.2994484,8.59879081 14.1157045,10.0322254 13.9891923,12.2372779 L13.9696923,12.5918564 L14.540424,12.5918564 L14.6355459,11.0718949 C15.0160337,12.0218708 15.3965215,12.5285247 15.7770093,12.5918564 C16.1152207,12.6481513 16.3532213,12.5543265 16.4910111,12.310382 L16.5379849,12.211866 L16.5379849,11.6418804 C16.347741,11.9585391 16.1257898,12.0852025 15.8721313,12.0218708 C15.6184728,11.9585391 15.3648142,11.6102146 15.1111557,10.9768973 C15.5550581,10.9135655 15.8721313,10.7552362 16.0623752,10.5019093 C16.3911305,10.064142 16.2526191,9.36193816 15.6818874,9.36193816 C15.2039723,9.36193816 14.8551918,9.67859681 14.6355459,10.3119141 C14.6989606,8.91861605 14.8574971,8.06363769 15.1111557,7.74697904 C15.3366299,7.46550469 15.662315,7.33414999 16.0882108,7.35291494 L16.2526191,7.36698866 L16.6331069,6.89200069 Z M8.05405812,9.71247928 L7.97700934,9.83692613 L7.97700934,10.3119141 C8.16725324,9.868592 8.35749714,9.71026267 8.54774105,9.83692613 C8.8331069,10.0269213 8.07213129,12.3068636 8.642863,12.4968588 C9.0233508,12.6235223 9.53066787,12.211866 10.1648142,11.2618901 C10.0379849,12.0218708 10.1013996,12.4335271 10.3550581,12.4968588 C10.5892045,12.5553188 10.8773846,12.2630186 11.2195985,11.6199579 L11.3062776,11.4518852 L11.2111557,11.1668925 C10.9574971,11.6102146 10.7672532,11.8002098 10.640424,11.736878 C10.5206408,11.6770647 10.5988326,10.9958577 10.8749994,9.69325693 L10.9257898,9.45693575 L10.4501801,9.55193335 C10.3867654,9.99525546 10.2916435,10.3752458 10.1648142,10.6919045 C9.97457031,11.1668925 9.40383861,11.8318756 9.0233508,11.736878 C8.642863,11.6418804 9.30871666,9.55193335 8.8331069,9.36193816 C8.54774105,9.24794104 8.28805812,9.36478808 8.05405812,9.71247928 Z M13.4940825,9.36193816 C12.4794484,9.36193816 11.8770093,9.71026267 11.6867654,10.4069117 C11.4013996,11.4518852 11.6867654,12.4018612 12.3526191,12.4968588 C12.747199,12.5531537 13.0666209,12.4343089 13.3108847,12.1403246 L13.3989606,12.0218708 L13.3989606,11.4518852 L13.2967634,11.5657253 C12.9613472,11.9216392 12.6783397,12.0420218 12.447741,11.9268732 C12.0672532,11.736878 11.8770093,10.7869021 12.2574971,10.2169165 C12.4857898,9.87492517 12.8168142,9.73812863 13.2505703,9.8065269 L13.3989606,9.83692613 L13.4940825,9.36193816 Z M15.5867654,9.83692613 C15.9672532,9.83692613 15.8721313,10.4069117 15.4916435,10.5969069 C15.2379849,10.7235704 14.9843264,10.7869021 14.7306679,10.7869021 C15.047741,10.1535848 15.3331069,9.83692613 15.5867654,9.83692613 Z" id="形状结合" fill="url(#linearGradient-3)"></path>
                    <g id="Luky备份-2" transform="translate(10.267628, 12.835875) rotate(26.000000) translate(-10.267628, -12.835875) translate(3.501989, 7.885283)"></g>
                </g>
            </g>
        </g>
    </g>
</svg>